<svg width="77" height="72" viewBox="0 0 77 72" fill="none" xmlns="http://www.w3.org/2000/svg">
<g clip-path="url(#clip0_177_1998)">
<path d="M53.7088 27H73.5981C75.4772 27 77.0004 28.5312 77.0004 30.42V48.6306C77.0004 55.5725 71.402 61.2 64.496 61.2H64.4369C57.5309 61.201 51.9317 55.5743 51.9307 48.6324C51.9307 48.6318 51.9307 48.6312 51.9307 48.6306V28.7874C51.9307 27.8002 52.7268 27 53.7088 27Z" fill="#5059C9"/>
<path d="M67.1509 23.4002C71.6013 23.4002 75.2091 19.7737 75.2091 15.3002C75.2091 10.8267 71.6013 7.2002 67.1509 7.2002C62.7005 7.2002 59.0928 10.8267 59.0928 15.3002C59.0928 19.7737 62.7005 23.4002 67.1509 23.4002Z" fill="#5059C9"/>
<path d="M42.081 23.4C48.5093 23.4 53.7205 18.1618 53.7205 11.7C53.7205 5.23827 48.5093 0 42.081 0C35.6526 0 30.4414 5.23827 30.4414 11.7C30.4414 18.1618 35.6526 23.4 42.081 23.4Z" fill="#7B83EB"/>
<path d="M57.601 27H24.7703C22.9137 27.0462 21.4449 28.595 21.488 30.4614V51.2316C21.2287 62.4317 30.0439 71.7259 41.1857 72C52.3275 71.7259 61.1426 62.4317 60.8834 51.2316V30.4614C60.9264 28.595 59.4577 27.0462 57.601 27Z" fill="#7B83EB"/>
<path opacity="0.1" d="M42.9766 27V56.106C42.9677 57.4407 42.1631 58.6398 40.9352 59.148C40.5443 59.3142 40.1241 59.3999 39.6997 59.4H23.0641C22.8313 58.806 22.6164 58.212 22.4373 57.6C21.8105 55.5346 21.4906 53.3874 21.4882 51.228V30.456C21.4452 28.5926 22.9115 27.0462 24.7652 27H42.9766Z" fill="black"/>
<path opacity="0.2" d="M41.1859 27V57.906C41.1859 58.3327 41.1006 58.755 40.9352 59.148C40.4297 60.3822 39.2368 61.1911 37.909 61.2H23.9057C23.6013 60.606 23.3148 60.012 23.0641 59.4C22.8134 58.788 22.6164 58.212 22.4373 57.6C21.8105 55.5346 21.4906 53.3874 21.4882 51.228V30.456C21.4452 28.5926 22.9115 27.0462 24.7652 27H41.1859Z" fill="black"/>
<path opacity="0.2" d="M41.1859 27V54.306C41.1723 56.1195 39.7131 57.5863 37.9089 57.6H22.4373C21.8105 55.5346 21.4906 53.3874 21.4882 51.228V30.456C21.4452 28.5926 22.9115 27.0462 24.7652 27H41.1859Z" fill="black"/>
<path opacity="0.2" d="M39.3952 27V54.306C39.3815 56.1195 37.9224 57.5863 36.1182 57.6H22.4373C21.8105 55.5346 21.4906 53.3874 21.4882 51.228V30.456C21.4452 28.5926 22.9115 27.0462 24.7652 27H39.3952Z" fill="black"/>
<path opacity="0.1" d="M42.9772 17.6944V23.3644C42.6728 23.3823 42.3863 23.4004 42.0819 23.4004C41.7774 23.4004 41.4909 23.3824 41.1865 23.3644C40.5821 23.324 39.9826 23.2276 39.3958 23.0764C35.7696 22.2132 32.7738 19.6569 31.3377 16.2004C31.0906 15.6199 30.8987 15.0172 30.7646 14.4004H39.7002C41.5072 14.4073 42.9704 15.878 42.9772 17.6944Z" fill="black"/>
<path opacity="0.2" d="M41.1857 19.4942V23.3642C40.5813 23.3239 39.9818 23.2275 39.3951 23.0762C35.7689 22.213 32.7731 19.6567 31.3369 16.2002H37.9088C39.7157 16.2071 41.1789 17.6778 41.1857 19.4942Z" fill="black"/>
<path opacity="0.2" d="M41.1857 19.4942V23.3642C40.5813 23.3239 39.9818 23.2275 39.3951 23.0762C35.7689 22.213 32.7731 19.6567 31.3369 16.2002H37.9088C39.7157 16.2071 41.1789 17.6778 41.1857 19.4942Z" fill="black"/>
<path opacity="0.2" d="M39.3951 19.4942V23.0762C35.7689 22.213 32.7731 19.6567 31.3369 16.2002H36.1181C37.9251 16.2071 39.3882 17.6779 39.3951 19.4942Z" fill="black"/>
<path d="M3.28233 16.2002H36.113C37.9258 16.2002 39.3953 17.6774 39.3953 19.4996V52.5008C39.3953 54.323 37.9257 55.8002 36.113 55.8002H3.28233C1.46954 55.8002 0 54.323 0 52.5008V19.4996C0 17.6774 1.46957 16.2002 3.28233 16.2002Z" fill="url(#paint0_linear_177_1998)"/>
<path d="M28.3362 28.7602H21.7733V46.7242H17.592V28.7602H11.0596V25.2754H28.3362V28.7602Z" fill="white"/>
</g>
<defs>
<linearGradient id="paint0_linear_177_1998" x1="6.84377" y1="13.6221" x2="32.7519" y2="58.262" gradientUnits="userSpaceOnUse">
<stop stop-color="#5A62C3"/>
<stop offset="0.5" stop-color="#4D55BD"/>
<stop offset="1" stop-color="#3940AB"/>
</linearGradient>
<clipPath id="clip0_177_1998">
<rect width="77" height="72" fill="white"/>
</clipPath>
</defs>
</svg>
